Coordinates
version=1
nRows=24
nColumns=22
inDegrees=yes

Units are S.I. units (second, meters, Newtons, ...)
If the header above contains a line with 'inDegrees', this indicates whether rotational values are in degrees (yes) or radians (no).

endheader
time	pelvis_tilt	pelvis_list	pelvis_rotation	pelvis_tx	pelvis_ty	pelvis_tz	hip_flexion_r	hip_adduction_r	hip_rotation_r	knee_angle_r	ankle_angle_r	subtalar_angle_r	hip_flexion_l	hip_adduction_l	hip_rotation_l	knee_angle_l	ankle_angle_l	subtalar_angle_l	lumbar_extension	lumbar_bending	lumbar_rotation
      2.76000000	      0.15982204	      4.70146661	    178.89095957	      0.81723133	      0.90534943	     -0.64840634	     25.29698859	     -1.32901876	      2.04330728	     -8.03386206	      3.53122312	     15.06996986	     -6.55314159	      6.09588316	     18.90898895	    -19.12698009	     18.62578057	    -15.67604032	     -9.53447781	     -3.15547992	    -13.56681829
      2.77000000	     -0.12425851	      4.57264665	    179.34090781	      0.80789628	      0.90394974	     -0.65054239	     25.02878531	     -1.23995717	      1.42816958	     -6.23093719	      3.45196478	     15.40641350	     -7.72835655	      5.93397190	     19.09293401	    -18.73588820	     18.89561116	    -15.66706120	     -9.85847694	     -3.42791857	    -13.38781306
      2.78000000	     -0.43617325	      4.44244405	    179.71835840	      0.79836904	      0.90256255	     -0.65267499	     24.85237509	     -1.10623209	      0.61294405	     -4.97662757	      3.50234373	     15.50107690	     -8.96615168	      5.76881425	     19.23445841	    -18.29979712	     19.09748154	    -15.67616473	    -10.19658179	     -3.68867412	    -13.16285107
      2.79000000	     -0.75640112	      4.32143448	    180.00783985	      0.78863159	      0.90119716	     -0.65485525	     24.77550242	     -0.90875820	     -0.25912284	     -4.26468825	      3.65137136	     15.38701285	    -10.25651706	      5.58718720	     19.30971964	    -17.79375106	     19.23959478	    -15.71016364	    -10.51585926	     -3.93336017	    -12.88990107
      2.80000000	     -1.05677054	      4.20946184	    180.23464623	      0.77872507	      0.89981820	     -0.65698625	     24.80832253	     -0.67124272	     -1.10862213	     -4.06471316	      3.90634049	     15.12264432	    -11.53183380	      5.40695371	     19.35324475	    -17.28931775	     19.29765974	    -15.75896343	    -10.79233968	     -4.14807392	    -12.59458509
      2.81000000	     -1.32143913	      4.10132096	    180.39790141	      0.76864410	      0.89841800	     -0.65906731	     24.94493676	     -0.40756125	     -1.83027387	     -4.33174839	      4.19936045	     14.75474161	    -12.76962125	      5.23955443	     19.36752424	    -16.79540891	     19.27009335	    -15.82347055	    -11.00451186	     -4.34211177	    -12.26871041
      2.82000000	     -1.51820190	      4.00010631	    180.51070289	      0.75837008	      0.89695565	     -0.66106600	     25.17915341	     -0.12751066	     -2.32680905	     -4.97993069	      4.48674383	     14.32474284	    -13.92559933	      5.08548454	     19.35168976	    -16.33099211	     19.15797737	    -15.89920547	    -11.11231568	     -4.50304063	    -11.96499782
      2.83000000	     -1.63924875	      3.89828161	    180.59361749	      0.74791977	      0.89543232	     -0.66295424	     25.49466655	      0.15143254	     -2.57315770	     -5.93782372	      4.71752408	     13.87598179	    -14.96997230	      4.95869191	     19.34811905	    -15.93980216	     18.96642635	    -15.96525445	    -11.11325614	     -4.64264167	    -11.67886304
      2.84000000	     -1.66729418	      3.81358833	    180.66056685	      0.73724272	      0.89384915	     -0.66471555	     25.86453842	      0.44510286	     -2.54635533	     -7.09648754	      4.85099270	     13.42368726	    -15.88172033	      4.83662496	     19.34694556	    -15.62723850	     18.70046963	    -16.00547030	    -10.97770411	     -4.73487020	    -11.43091430
      2.85000000	     -1.60907897	      3.75647988	    180.72625872	      0.72634046	      0.89225382	     -0.66634779	     26.25785739	      0.76390105	     -2.25620843	     -8.37190459	      4.82515724	     12.97324367	    -16.65788811	      4.70730137	     19.36147073	    -15.41342482	     18.36548875	    -15.99425151	    -10.71663568	     -4.77237192	    -11.22780006
      2.86000000	     -1.46858024	      3.75547620	    180.80246059	      0.71519929	      0.89069821	     -0.66783975	     26.65289427	      1.13454523	     -1.73577215	     -9.68989722	      4.60564355	     12.49005594	    -17.29668754	      4.53829328	     19.38543464	    -15.30810633	     17.95713840	    -15.90831883	    -10.33133437	     -4.71839218	    -11.06858957
      2.87000000	     -1.26425742	      3.82544508	    180.89295853	      0.70383849	      0.88926301	     -0.66918529	     27.03219690	      1.56790255	     -1.02802918	    -11.00623125	      4.16560834	     11.98987752	    -17.80897898	      4.31446026	     19.40576746	    -15.32102740	     17.46307782	    -15.73570898	     -9.84704290	     -4.55834785	    -10.94529582
      2.88000000	     -1.02269033	      3.98997618	    181.00895721	      0.69226992	      0.88805352	     -0.67034935	     27.36060049	      2.07483401	     -0.18431874	    -12.26490902	      3.46835988	     11.53904573	    -18.21831299	      4.01134106	     19.42322971	    -15.45183871	     16.84662639	    -15.53788802	     -9.29686424	     -4.26200648	    -10.86916635
      2.89000000	     -0.71864468	      4.26390711	    181.16480310	      0.68053044	      0.88702218	     -0.67126785	     27.75098314	      2.63882149	      0.55660869	    -13.59090066	      2.70032376	     10.91957958	    -18.45306586	      3.61992139	     19.39639799	    -15.77252471	     16.16045004	    -15.09140983	     -8.65533977	     -3.80694860	    -10.81475762
      2.90000000	     -0.42687251	      4.64166891	    181.35945893	      0.66862905	      0.88635162	     -0.67188831	     28.09139514	      3.24165716	      1.20528970	    -14.90025350	      1.83189157	     10.45004177	    -18.60529390	      3.15220989	     19.35006165	    -16.24862739	     15.31332287	    -14.62906862	     -8.01375943	     -3.19454016	    -10.80798347
      2.91000000	     -0.15492182	      5.10991450	    181.60355434	      0.65658292	      0.88604456	     -0.67213992	     28.41285463	      3.84110837	      1.61236962	    -16.25445248	      1.02233403	     10.10611032	    -18.65808286	      2.62739624	     19.27298169	    -16.91294584	     14.29829692	    -14.09812522	     -7.38233183	     -2.43337095	    -10.84771068
      2.92000000	      0.07294452	      5.64559310	    181.90120193	      0.64440543	      0.88612615	     -0.67197708	     28.68353851	      4.39884524	      1.72815115	    -17.63783666	      0.36546811	      9.93783644	    -18.61679644	      2.07634340	     19.15784864	    -17.79210141	     13.07835128	    -13.50236873	     -6.79112653	     -1.54856127	    -10.93195832
      2.93000000	      0.23564256	      6.21956723	    182.25335800	      0.63211867	      0.88660891	     -0.67138653	     28.85624241	      4.88270396	      1.56337064	    -19.00070786	     -0.08041410	      9.98210499	    -18.48919376	      1.52917567	     18.99242061	    -18.89362439	     11.61722449	    -12.85027137	     -6.26498806	     -0.57249464	    -11.06191487
      2.94000000	      0.32326509	      6.80905947	    182.65692234	      0.61975994	      0.88748550	     -0.67042667	     28.88944598	      5.28806739	      1.18802979	    -20.28151248	     -0.31396684	     10.23518251	    -18.27776749	      0.99950985	     18.74932720	    -20.20901464	      9.89353468	    -12.14786060	     -5.81879502	      0.45785238	    -11.24987326
      2.95000000	      0.33584639	      7.38325640	    183.10582042	      0.60741983	      0.88873406	     -0.66916613	     28.74509266	      5.61339119	      0.68876406	    -21.40077884	     -0.32769088	     10.65851986	    -17.95879215	      0.51479474	     18.42586972	    -21.75653414	      7.86629824	    -11.34782972	     -5.46447506	      1.49178920	    -11.43614032
      2.96000000	      0.28622723	      7.94704229	    183.62614310	      0.59517638	      0.89031593	     -0.66766111	     28.40301285	      5.88695387	      0.12055643	    -22.28597337	     -0.18325264	     11.11144088	    -17.49245183	      0.04588394	     18.01529654	    -23.55130491	      5.55866313	    -10.55986157	     -5.19192006	      2.52005017	    -11.66653464
      2.97000000	      0.17634194	      8.40787068	    184.15182297	      0.58317023	      0.89216029	     -0.66609029	     27.90854595	      6.07941157	     -0.39247703	    -23.01446037	      0.18750075	     11.58220184	    -16.87727873	     -0.31726593	     17.43495897	    -25.56550581	      2.90202087	     -9.52071450	     -5.02973302	      3.41217733	    -11.86101647
      2.98000000	      0.04760468	      8.81387841	    184.72933812	      0.57144981	      0.89418084	     -0.66442650	     27.28277801	      6.22649317	     -0.92349905	    -23.52461575	      0.66753688	     11.88081197	    -16.04426315	     -0.64900349	     16.73300441	    -27.82087486	     -0.03938857	     -8.50883728	     -4.92550618	      4.21660507	    -12.05138919
      2.99000000	     -0.09181134	      9.12188716	    185.34073053	      0.56012374	      0.89628894	     -0.66272756	     26.57120269	      6.29843557	     -1.46310003	    -23.87894752	      1.26680515	     11.98040783	    -14.96757200	     -0.92083818	     15.86784838	    -30.32676010	     -3.25328608	     -7.49916496	     -4.89178478	      4.87064599	    -12.20257591
